<?xml version="1.0" encoding="UTF-8" standalone="no"?>
<!DOCTYPE svg PUBLIC "-//W3C//DTD SVG 1.1//EN" "http://www.w3.org/Graphics/SVG/1.1/DTD/svg11.dtd">
<svg width="100%" height="100%" viewBox="0 0 1024 1024" version="1.1" xmlns="http://www.w3.org/2000/svg" xmlns:xlink="http://www.w3.org/1999/xlink" xml:space="preserve" xmlns:serif="http://www.serif.com/" style="fill-rule:evenodd;clip-rule:evenodd;stroke-linejoin:round;stroke-miterlimit:2;">
    <g transform="matrix(0.739528,0,0,0.70735,-236.748,-810.221)">
        <path d="M1012.5,1863.23C1043.85,1861.27 1129.27,1695.8 1129.27,1649.63C1129.27,1603.45 1049.37,1543.61 1012.5,1543.61C975.629,1543.61 891.792,1603.45 891.792,1649.63C891.792,1695.8 975.621,1865.52 1012.5,1863.23Z" style="fill:rgb(172,200,253);"/>
    </g>
    <g transform="matrix(0.228527,0.67273,-0.703333,0.218583,1599.46,-574.874)">
        <path d="M1012.5,1863.23C1043.85,1861.27 1129.27,1695.8 1129.27,1649.63C1129.27,1603.45 1049.37,1543.61 1012.5,1543.61C975.629,1543.61 891.792,1603.45 891.792,1649.63C891.792,1695.8 975.621,1865.52 1012.5,1863.23Z" style="fill:rgb(172,200,253);"/>
    </g>
    <g transform="matrix(-0.598291,0.41577,-0.434684,-0.572258,1932.87,1168.2)">
        <path d="M1012.5,1863.23C1043.85,1861.27 1129.27,1695.8 1129.27,1649.63C1129.27,1603.45 1049.37,1543.61 1012.5,1543.61C975.629,1543.61 891.792,1603.45 891.792,1649.63C891.792,1695.8 975.621,1865.52 1012.5,1863.23Z" style="fill:rgb(172,200,253);"/>
    </g>
    <g transform="matrix(-0.598291,-0.41577,0.434684,-0.572258,302.719,2010.14)">
        <path d="M1012.5,1863.23C1043.85,1861.27 1129.27,1695.8 1129.27,1649.63C1129.27,1603.45 1049.37,1543.61 1012.5,1543.61C975.629,1543.61 891.792,1603.45 891.792,1649.63C891.792,1695.8 975.621,1865.52 1012.5,1863.23Z" style="fill:rgb(172,200,253);"/>
    </g>
    <g transform="matrix(0.228527,-0.67273,0.703333,0.218583,-1038.18,787.404)">
        <path d="M1012.5,1863.23C1043.85,1861.27 1129.27,1695.8 1129.27,1649.63C1129.27,1603.45 1049.37,1543.61 1012.5,1543.61C975.629,1543.61 891.792,1603.45 891.792,1649.63C891.792,1695.8 975.621,1865.52 1012.5,1863.23Z" style="fill:rgb(172,200,253);"/>
    </g>
    <g transform="matrix(0.739528,0,0,0.70735,-236.748,-810.221)">
        <path d="M1012.5,1784.25C1012.5,1784.25 1008.15,1838.59 999.358,1841.48C990.561,1844.36 959.72,1801.56 959.72,1801.56C959.72,1801.56 990.356,1843.71 984.639,1851.29C978.922,1858.88 925.419,1847.08 925.419,1847.08C925.419,1847.08 975.352,1867.75 975.571,1877.79C975.791,1887.84 926.738,1907.35 926.738,1907.35C926.738,1907.35 976.603,1889.55 981.962,1896.47C987.322,1903.38 958.896,1948.83 958.896,1948.83C958.896,1948.83 992.622,1907.49 1002.41,1910.41C1012.19,1913.34 1017.6,1966.38 1017.6,1966.38C1017.6,1966.38 1014.81,1913.13 1022.84,1910.1C1030.87,1907.06 1065.76,1948.17 1065.76,1948.17C1065.76,1948.17 1037.95,1902.37 1043.69,1894.04C1049.44,1885.71 1100.22,1898.2 1100.22,1898.2C1100.22,1898.2 1049.7,1883.92 1049.43,1875.31C1049.15,1866.71 1098.58,1846.58 1098.58,1846.58C1098.58,1846.58 1044.18,1857.82 1038.08,1849.74C1031.97,1841.66 1061.96,1798.1 1061.96,1798.1C1056.2,1801.86 1031.56,1843.3 1023.32,1840.99C1015.08,1838.68 1015.22,1789.46 1012.5,1784.25Z" style="fill:rgb(246,254,255);"/>
    </g>
    <g transform="matrix(0.277283,0,0,0.265218,231.275,19.7369)">
        <circle cx="1012.5" cy="1872.22" r="51.87" style="fill:rgb(238,208,2);"/>
    </g>
    <g transform="matrix(0.994803,0,0,0.951518,-123.822,-1368.43)">
        <path d="M639.475,2000.78C644.246,2000.16 651.743,2005.18 654.984,2002.85C658.226,2000.52 657.384,1991.41 658.924,1986.78C660.504,1982.03 665.636,1975.86 664.118,1972.28C662.6,1968.71 654.129,1968.43 649.815,1965.36C645.335,1962.17 641.049,1953.22 637.24,1953.13C633.43,1953.05 630.858,1961.41 626.958,1964.84C622.799,1968.5 613.443,1971.13 612.288,1975.08C611.133,1979.02 617.843,1983.83 620.027,1988.51C622.315,1993.41 622.772,2002.46 626.013,2004.5C629.255,2006.55 634.859,2001.38 639.475,2000.78Z" style="fill:rgb(238,208,2);"/>
    </g>
    <g transform="matrix(0.739528,0,0,0.70735,39.8533,-883.091)">
        <path d="M638.797,1962.94C643.25,1962.94 646.028,1964.43 649.136,1967.16C652.831,1970.4 655.936,1973.76 655.936,1979.05C655.936,1984.9 653.553,1988.08 649.173,1991.3C646.248,1993.44 642.699,1994.71 638.797,1994.71C633.448,1994.71 630.761,1994.02 627.521,1990.26C624.857,1987.17 621.848,1982.73 621.848,1978.33C621.848,1973.64 624.538,1971.03 627.521,1967.87C630.742,1964.45 633.736,1962.94 638.797,1962.94Z"/>
    </g>
</svg>
